# xmcd CD database file generated by Grip 3.3.1
# 
# Track frame offsets:
#       150
#       11081
#       25413
#       49635
#       71304
#       88359
#       109816
#       122371
#       136364
#       152704
#       166352
#       187224
#       204113
# 
# Disc length: 2945 seconds
# 
# Revision: 5
# Processed by: cddbd v1.5.2PL0 Copyright (c) Steve Scherf et al.
# Submitted via: Grip 3.3.1
# 
DISCID=ad0b7f0d
DTITLE=Thievery Corporation - The Mirror Conspiracy
DYEAR=2000
DGENRE=Electronic
TTITLE0=Treasures
TTITLE1=Le Monde
TTITLE2=Indra
TTITLE3=Labanese Blonde
TTITLE4=Focus On Sight
TTITLE5=Air Batucada
TTITLE6=So Com Voce
TTITLE7=Samba Tranquille
TTITLE8=Shadows Of Ourselves
TTITLE9=The Hong Kong Triad
TTITLE10=Illumination
TTITLE11=The Mirror Consipiracy
TTITLE12=Tomorrow
EXTD=YEAR: 2000
EXTT0=
EXTT1=
EXTT2=
EXTT3=
EXTT4=
EXTT5=
EXTT6=
EXTT7=
EXTT8=
EXTT9=
EXTT10=
EXTT11=
EXTT12=
PLAYORDER=
